<svg xmlns="http://www.w3.org/2000/svg" width="1920" height="635"><defs><linearGradient id="b" x1=".5" x2=".5" y2="1" gradientUnits="objectBoundingBox"><stop offset="0" stop-color="#d72344"/><stop offset=".729" stop-color="#d72344"/><stop offset="1" stop-color="#8b2346"/></linearGradient><linearGradient id="c" x1=".5" y1="1" x2=".5" y2=".064" gradientUnits="objectBoundingBox"><stop offset="0" stop-color="#1d486f"/><stop offset=".808" stop-color="#1d486f"/><stop offset="1" stop-color="#32355b"/></linearGradient><clipPath id="a"><path data-name="Rectangle 533" transform="translate(8365 1884)" fill="#fff" d="M0 0h1920v635H0z"/></clipPath></defs><g data-name="Group 2003"><path data-name="Rectangle 532" fill="#1d1f48" d="M0 0h1920v635H0z"/><g data-name="Mask Group 65" transform="translate(-8365 -1884)" clip-path="url(#a)"><g data-name="Group 1837"><path data-name="Path 2751" d="M31.265 0s58.368 186.029 638.861 410.416C783.475 457.651 1214.7 608.4 1205.455 824.6a162.923 162.923 0 01-2.365 21.514C1146.536 1165.825-1.387 1325.627.071 275.912-.91 178.537 8.242 82.192 31.265 0z" transform="translate(7719.768 1709.435)" fill="url(#b)"/><path data-name="Path 2750" d="M1701.809 1574.616s-84.586-269.589-925.817-594.763C611.731 911.4-13.189 692.948.212 379.623a236.173 236.173 0 013.427-31.178C85.6-114.863 1749.126-346.444 1747.015 1174.772c1.421 141.113-11.842 280.733-45.206 399.844z" transform="translate(8924.907 1555.953)" fill="url(#c)"/></g></g></g></svg>